<svg preserveAspectRatio="none" overflow="visible" style="display: block;" width="16" height="13.3334" viewBox="0 0 16 13.3334" fill="none" xmlns="http://www.w3.org/2000/svg">
<path id="Vector" fill-rule="evenodd" clip-rule="evenodd" d="M10.852 0C11.6227 0 12.2473 0.618 12.2473 1.38V9.714C12.2527 9.84169 12.3074 9.96232 12.3999 10.0505C12.4924 10.1386 12.6155 10.1875 12.7433 10.1867C12.871 10.1873 12.994 10.1384 13.0863 10.0503C13.1787 9.9621 13.2333 9.84157 13.2387 9.714V4.73267C13.2396 4.55232 13.2761 4.37392 13.346 4.20767C13.4159 4.04142 13.5179 3.89056 13.6461 3.76372C13.7743 3.63687 13.9262 3.53652 14.0932 3.46839C14.2602 3.40027 14.439 3.3657 14.6193 3.36667C14.7997 3.3657 14.9786 3.40029 15.1456 3.46846C15.3126 3.53663 15.4646 3.63704 15.5928 3.76395C15.721 3.89087 15.823 4.0418 15.8929 4.20813C15.9627 4.37446 15.9991 4.55293 16 4.73333V9.10733C15.9993 9.22197 15.9531 9.33164 15.8716 9.41226C15.7901 9.49288 15.68 9.53787 15.5653 9.53733C15.5085 9.53768 15.4522 9.52684 15.3996 9.50542C15.3469 9.484 15.299 9.45243 15.2586 9.4125C15.2182 9.37257 15.186 9.32507 15.164 9.27271C15.1419 9.22035 15.1303 9.16415 15.13 9.10733V4.73333C15.1297 4.66662 15.1162 4.60063 15.0903 4.53913C15.0645 4.47763 15.0267 4.42183 14.9793 4.3749C14.9319 4.32798 14.8757 4.29085 14.8139 4.26565C14.7522 4.24044 14.686 4.22765 14.6193 4.228C14.5526 4.22765 14.4865 4.24044 14.4247 4.26565C14.363 4.29085 14.3068 4.32798 14.2593 4.3749C14.2119 4.42183 14.1742 4.47763 14.1484 4.53913C14.1225 4.60063 14.109 4.66662 14.1087 4.73333V9.71467C14.1077 9.893 14.0716 10.0694 14.0025 10.2338C13.9334 10.3982 13.8325 10.5474 13.7057 10.6728C13.579 10.7982 13.4287 10.8974 13.2636 10.9648C13.0984 11.0321 12.9217 11.0663 12.7433 11.0653C12.565 11.0663 12.3882 11.0321 12.2231 10.9648C12.058 10.8974 11.9077 10.7982 11.7809 10.6728C11.6541 10.5474 11.5533 10.3982 11.4842 10.2338C11.415 10.0694 11.379 9.893 11.378 9.71467V1.38133C11.3725 1.24592 11.3146 1.11793 11.2167 1.0243C11.1187 0.930671 10.9882 0.878703 10.8527 0.879333C10.7171 0.878523 10.5866 0.930322 10.4885 1.02383C10.3904 1.11734 10.3324 1.24526 10.3267 1.38067L10.326 11.9833C10.3239 12.3434 10.1789 12.6879 9.92284 12.941C9.66681 13.1942 9.32072 13.3353 8.96067 13.3333C8.78233 13.3343 8.60555 13.3001 8.44042 13.2328C8.27529 13.1654 8.12505 13.0662 7.99826 12.9408C7.87148 12.8154 7.77064 12.6662 7.70151 12.5018C7.63237 12.3374 7.59629 12.161 7.59533 11.9827V10.6933C7.59533 10.456 7.79 10.2633 8.03 10.2633C8.27 10.2633 8.46467 10.456 8.46467 10.6933V11.9827C8.46467 12.158 8.55933 12.32 8.71267 12.408C8.866 12.4953 9.05533 12.4953 9.20867 12.408C9.2839 12.3653 9.34649 12.3035 9.39006 12.2288C9.43362 12.1541 9.45661 12.0692 9.45667 11.9827V1.38C9.45667 0.618 10.0813 0 10.852 0ZM7.06933 0C7.84 0 8.46467 0.618 8.46467 1.38V9.062C8.4644 9.11879 8.45295 9.17497 8.43096 9.22732C8.40896 9.27968 8.37686 9.32718 8.33649 9.36712C8.29612 9.40706 8.24827 9.43865 8.19568 9.46008C8.14309 9.4815 8.08679 9.49235 8.03 9.492C7.97321 9.49235 7.91691 9.4815 7.86432 9.46008C7.81173 9.43865 7.76388 9.40706 7.72351 9.36712C7.68314 9.32718 7.65104 9.27968 7.62905 9.22732C7.60705 9.17497 7.5956 9.11879 7.59533 9.062V1.38C7.59445 1.24132 7.53856 1.10866 7.43993 1.01116C7.34131 0.913657 7.20802 0.859291 7.06933 0.86C6.93065 0.859291 6.79736 0.913657 6.69873 1.01116C6.60011 1.10866 6.54421 1.24132 6.54333 1.38V10.722C6.54122 11.086 6.39468 11.4343 6.13591 11.6903C5.87715 11.9463 5.52734 12.0891 5.16333 12.0873C4.79922 12.0893 4.44923 11.9466 4.19032 11.6905C3.93141 11.4345 3.78478 11.0861 3.78267 10.722V4.73333C3.78232 4.66662 3.76883 4.60063 3.74298 4.53913C3.71713 4.47763 3.67941 4.42183 3.63199 4.3749C3.58457 4.32798 3.52838 4.29085 3.46661 4.26565C3.40484 4.24044 3.33871 4.22765 3.272 4.228C3.20529 4.22765 3.13916 4.24044 3.07739 4.26565C3.01563 4.29085 2.95943 4.32798 2.91201 4.3749C2.86459 4.42183 2.82687 4.47763 2.80102 4.53913C2.77517 4.60063 2.76168 4.66662 2.76133 4.73333V7.26667C2.76037 7.44702 2.7239 7.62541 2.65399 7.79166C2.58409 7.95792 2.48212 8.10877 2.35391 8.23562C2.22571 8.36246 2.07377 8.46281 1.90678 8.53094C1.73979 8.59907 1.56102 8.63363 1.38067 8.63267C1.20032 8.63363 1.02154 8.59907 0.854554 8.53094C0.687563 8.46281 0.535627 8.36246 0.40742 8.23562C0.279213 8.10877 0.177245 7.95792 0.10734 7.79166C0.0374346 7.62541 0.00096046 7.44702 0 7.26667L0 6.348C0 6.11 0.194667 5.91733 0.434667 5.91733C0.674667 5.91733 0.87 6.11067 0.87 6.348V7.26667C0.87 7.54533 1.09867 7.77133 1.38067 7.77133C1.66267 7.77133 1.89133 7.54533 1.89133 7.26667V4.73267C1.89345 4.36867 2.03999 4.0204 2.29875 3.76438C2.55751 3.50837 2.90733 3.36556 3.27133 3.36733C3.63545 3.36538 3.98544 3.50811 4.24435 3.76415C4.50325 4.02018 4.64988 4.36855 4.652 4.73267V10.722C4.652 11.0013 4.88067 11.2273 5.16333 11.2273C5.44533 11.2273 5.674 11.0013 5.674 10.722V1.38C5.674 0.618 6.29867 0 7.06933 0Z" fill="black"/>
</svg>
